 <svg  version="1.0" xmlns="http://www.w3.org/2000/svg"  width="300.000000pt" height="300.000000pt" viewBox="0 0 300.000000 300.000000"  preserveAspectRatio="xMidYMid meet">  <g transform="translate(0.000000,300.000000) scale(0.050000,-0.050000)" fill="#516fff" stroke="none"> <path d="M4002 3682 c-20 -20 -260 -292 -532 -605 -273 -312 -502 -574 -509 -582 -7 -8 -129 113 -270 270 -277 308 -292 321 -339 303 -70 -27 -58 -87 41 -200 54 -61 126 -144 161 -184 l63 -74 -54 -67 -55 -66 -257 286 c-288 322 -295 327 -351 297 -75 -40 -41 -97 255 -422 375 -412 344 -396 469 -254 l101 114 99 -109 c55 -60 112 -109 127 -109 30 0 1176 1305 1186 1351 17 79 -73 113 -135 51z"/> <path d="M3306 3395 c-453 -510 -469 -530 -463 -579 19 -131 92 -78 453 335 364 415 411 509 256 509 -6 0 -116 -119 -246 -265z"/> </g> </svg> 