<?xml version="1.0" encoding="UTF-8" standalone="no"?>
<svg xmlns:inkscape="http://www.inkscape.org/namespaces/inkscape" xmlns:sodipodi="http://sodipodi.sourceforge.net/DTD/sodipodi-0.dtd" xmlns="http://www.w3.org/2000/svg" xmlns:svg="http://www.w3.org/2000/svg" version="1.0" width="113.62402pt" height="72pt" viewBox="0 0 113.62402 72" preserveAspectRatio="xMidYMid meet" id="svg10" sodipodi:docname="57ad5fa1c273463e45dae56fb20cc5cc.svg">
  <defs id="defs14"/>
  <sodipodi:namedview id="namedview12" pagecolor="#ffffff" bordercolor="#666666" borderopacity="1.0" inkscape:pageshadow="2" inkscape:pageopacity="0.0" inkscape:pagecheckerboard="0" inkscape:document-units="pt"/>
  <metadata id="metadata2">
Created by potrace 1.10, written by Peter Selinger 2001-2011
<meta name="Producer" content="Online-Convert"/></metadata>
  <g transform="matrix(0.05,0,0,-0.05,-93.276383,186)" fill="#7ed958" stroke="none" id="g8">
    <path d="m 3527,3145 c -277,-316 -520,-596 -540,-621 l -38,-47 -222,247 c -368,407 -338,382 -396,325 -50,-51 -40,-72 128,-258 l 159,-176 -51,-68 c -29,-37 -54,-67 -57,-67 -2,0 -120,128 -260,285 -287,320 -294,325 -350,295 -76,-41 -42,-97 262,-431 364,-399 340,-386 464,-244 l 99,113 99,-109 c 55,-60 112,-109 127,-109 30,0 1176,1305 1186,1351 8,40 -33,89 -74,89 -18,0 -259,-259 -536,-575 z" id="path4"/>
    <path d="m 3448,3555 c -521,-556 -673,-776 -547,-791 45,-5 98,47 395,387 343,392 379,449 305,488 -52,29 -44,33 -153,-84 z" id="path6"/>
  </g>
</svg>
