<?xml version="1.0" standalone="no"?>
<!DOCTYPE svg PUBLIC "-//W3C//DTD SVG 20010904//EN" "http://www.w3.org/TR/2001/REC-SVG-20010904/DTD/svg10.dtd">
<svg xmlns="http://www.w3.org/2000/svg" version="1.0" width="512.000000pt" height="512.000000pt" viewBox="0 0 512.000000 512.000000" preserveAspectRatio="xMidYMid meet">
<metadata>
Created by potrace 1.16, written by Peter Selinger 2001-2019
<meta name="Producer" content="Online-Convert"/></metadata>
<g transform="translate(0.000000,512.000000) scale(0.100000,-0.100000)" fill="#000000" stroke="none">
<path d="M4743 4063 c-19 -10 -520 -576 -1158 -1308 -619 -710 -1129 -1291 -1134 -1293 -4 -1 -252 269 -550 600 -375 416 -555 610 -584 626 -107 60 -237 -18 -237 -142 0 -34 7 -62 20 -84 11 -18 162 -190 335 -382 l314 -348 -121 -139 -121 -140 -465 516 c-630 699 -642 712 -679 727 -71 30 -165 1 -204 -63 -28 -45 -30 -130 -4 -170 38 -58 1254 -1399 1279 -1411 39 -17 116 -15 153 6 18 9 102 98 188 197 86 99 166 190 179 203 l22 23 184 -205 c104 -116 198 -212 216 -221 38 -18 98 -19 142 -4 24 8 331 354 1233 1387 660 758 1208 1391 1217 1407 35 67 12 162 -50 208 -39 29 -132 34 -175 10z"/>
<path d="M3674 3921 c-31 -19 -1400 -1579 -1435 -1636 -13 -20 -19 -49 -19 -86 0 -66 26 -112 80 -140 40 -22 116 -25 155 -7 28 13 1418 1599 1448 1651 37 68 13 168 -52 213 -46 31 -130 33 -177 5z"/>
</g>
</svg>
