<svg width="24" height="24" viewBox="0 0 24 24" fill="none"
     xmlns="http://www.w3.org/2000/svg">
  <path d="M12 12C14.2091 12 16 10.2091 16 8C16 5.79086 14.2091 4 12 4C9.79086 4 8 5.79086 8 8C8 10.2091 9.79086 12 12 12Z"
        stroke="currentColor" stroke-width="1.5" stroke-linecap="round" stroke-linejoin="round"/>
  <path d="M3 20C3 16.6863 6.68629 14 11 14H13C17.3137 14 21 16.6863 21 20"
        stroke="currentColor" stroke-width="1.5" stroke-linecap="round" stroke-linejoin="round"/>
  <path d="M17.5 6.5C18.6046 6.5 19.5 7.39543 19.5 8.5C19.5 9.60457 18.6046 10.5 17.5 10.5"
        stroke="currentColor" stroke-width="1.5" stroke-linecap="round" stroke-linejoin="round"/>
  <path d="M6.5 6.5C5.39543 6.5 4.5 7.39543 4.5 8.5C4.5 9.60457 5.39543 10.5 6.5 10.5"
        stroke="currentColor" stroke-width="1.5" stroke-linecap="round" stroke-linejoin="round"/>
</svg>
